{"title":"Gunday (2014) - Teaser - Ranveer Singh, Arjun Kapoor HD 1080p {D","uid":9228072,"size":51162377,"categoryP":"video","categoryS":"movie_clips","magnet":"?xt=urn:btih:9c8c5bb340d34b2750903ed55605ca0a9edbf55f&amp;dn=Gunday+%282014%29+-+Teaser+-+Ranveer+Singh%2C+Arjun+Kapoor+HD+1080p+%7BD&amp;tr=udp%3A%2F%2Ftracker.openbittorrent.com%3A80&amp;tr=udp%3A%2F%2Fopen.demonii.com%3A1337&amp;tr=udp%3A%2F%2Ftracker.coppersurfer.tk%3A6969&amp;tr=udp%3A%2F%2Fexodus.desync.com%3A6969","seeders":1,"leechers":0,"uploader":"Palash995","files":1,"time":1384992795,"description":"\n\nBased in Calcutta during its most unsettled times in the '70's, the film deals with the inseparable life of Bikram and Bala. \nThe story of 2 boys, boys who became refugees.\nRefugees who became gun couriers.\nGun Couriers who became coal bandits, Coal bandits who became Calcutta's\nMost Loved, Most Celebrated, Most Reckless, Most Fearless, Most Powerful!\nA story of two happy-go-lucky renegades who came to be known as... GUNDAY!\n\nDirected by Ali Abbas Zafar and Produced by Aditya Chopra, the film stars Ranveer Singh &amp; Arjun Kapoor, as Bikram and Bala, along with Priyanka Chopra and Irrfan Khan, in lead roles.\n\nGUNDAY releases worldwide on 14th February 2014.\n\nScreenshots:-\n &lt;a href=&quot;\nhttp://img132.imageshack.us/img132/9203/0oo3.jpg&quot; rel=&quot;nofollow&quot; target=&quot;_NEW&quot;&gt;\nhttp://img132.imageshack.us/img132/9203/0oo3.jpg&lt;/a&gt;\n\n &lt;a href=&quot;\nhttp://img689.imageshack.us/img689/6316/1w0i.jpg&quot; rel=&quot;nofollow&quot; target=&quot;_NEW&quot;&gt;\nhttp://img689.imageshack.us/img689/6316/1w0i.jpg&lt;/a&gt;\n &lt;a href=&quot;\nhttp://img404.imageshack.us/img404/4549/qcp9.jpg&quot; rel=&quot;nofollow&quot; target=&quot;_NEW&quot;&gt;\nhttp://img404.imageshack.us/img404/4549/qcp9.jpg&lt;/a&gt;\n &lt;a href=&quot;\nhttp://img541.imageshack.us/img541/1829/v3ad.jpg&quot; rel=&quot;nofollow&quot; target=&quot;_NEW&quot;&gt;\nhttp://img541.imageshack.us/img541/1829/v3ad.jpg&lt;/a&gt;\n\nMedia Info:-\n\nGeneral\nComplete name : Gunday (2014) - Teaser - Ranveer Singh, Arjun Kapoor HD 1080p {DAKU RG} {GreatPalash}.mp4\nFormat : MPEG-4\nFormat profile : Base Media\nCodec ID : isom\nFile size : 48.8 MiB\nDuration : 1mn 53s\nOverall bit rate mode : Variable\nOverall bit rate : 3 617 Kbps\nWriting application : Lavf53.31.100\n\nVideo\nID : 1\nFormat : AVC\nFormat/Info : Advanced Video Codec\nFormat profile : &lt;a class=&quot;__cf_email__&quot; href=&quot;/cdn-cgi/l/email-protection&quot; data-cfemail=&quot;034b6a646b434f372d32&quot;&gt;[email&amp;#160;protected]&lt;/a&gt;&lt;script cf-hash='f9e31' type=&quot;text/javascript&quot;&gt;\n/* &lt;![CDATA[ */!function(){try{var t=&quot;currentScript&quot;in document?document.currentScript:function(){for(var t=document.getElementsByTagName(&quot;script&quot;),e=t.length;e--;)if(t[e].getAttribute(&quot;cf-hash&quot;))return t[e]}();if(t&amp;&amp;t.previousSibling){var e,r,n,i,c=t.previousSibling,a=c.getAttribute(&quot;data-cfemail&quot;);if(a){for(e=&quot;&quot;,r=parseInt(a.substr(0,2),16),n=2;a.length-n;n+=2)i=parseInt(a.substr(n,2),16)^r,e+=String.fromCharCode(i);e=document.createTextNode(e),c.parentNode.replaceChild(e,c)}}}catch(u){}}();/* ]]&gt; */&lt;/script&gt;\nFormat settings, CABAC : Yes\nFormat settings, ReFrames : 3 frames\nCodec ID : avc1\nCodec ID/Info : Advanced Video Coding\nDuration : 1mn 53s\nBit rate mode : Variable\nBit rate : 3 358 Kbps\nMaximum bit rate : 19.2 Mbps\nWidth : 1 920 pixels\nHeight : 1 080 pixels\nDisplay aspect ratio : 16:9\nFrame rate mode : Constant\nFrame rate : 24.000 fps\nStandard : NTSC\nColor space : YUV\nChroma subsampling : 4:2:0\nBit depth : 8 bits\nScan type : Progressive\nBits/(Pixel*Frame) : 0.067\nStream size : 45.3 MiB (93%)\nColor primaries : BT.709\nTransfer characteristics : BT.709\nMatrix coefficients : BT.709\n\nAudio\nID : 2\nFormat : AAC\nFormat/Info : Advanced Audio Codec\nFormat profile : LC\nCodec ID : 40\nDuration : 1mn 53s\nBit rate mode : Constant\nBit rate : 253 Kbps\nChannel(s) : 2 channels\nChannel positions : Front: L R\nSampling rate : 44.1 KHz\nCompression mode : Lossy\nStream size : 3.42 MiB (7%)\n &lt;a href=&quot;\nhttp://imageshack.us/a/img89/4822/zka.gif&quot; rel=&quot;nofollow&quot; target=&quot;_NEW&quot;&gt;\nhttp://imageshack.us/a/img89/4822/zka.gif&lt;/a&gt;\n &lt;a href=&quot;\nhttp://imageshack.us/a/img200/185/tj8.gif&quot; rel=&quot;nofollow&quot; target=&quot;_NEW&quot;&gt;\nhttp://imageshack.us/a/img200/185/tj8.gif&lt;/a&gt;\n &lt;a href=&quot;\nhttp://imageshack.us/a/img593/9603/ua8.gif&quot; rel=&quot;nofollow&quot; target=&quot;_NEW&quot;&gt;\nhttp://imageshack.us/a/img593/9603/ua8.gif&lt;/a&gt;\n &lt;a href=&quot;\nhttp://imageshack.us/a/img707/5608/ysmp.png&quot; rel=&quot;nofollow&quot; target=&quot;_NEW&quot;&gt;\nhttp://imageshack.us/a/img707/5608/ysmp.png&lt;/a&gt;\n\n","torrent":{"xt":"urn:btih:9c8c5bb340d34b2750903ed55605ca0a9edbf55f","amp;dn":"Gunday+%282014%29+-+Teaser+-+Ranveer+Singh%2C+Arjun+Kapoor+HD+1080p+%7BD","amp;tr":["udp%3A%2F%2Ftracker.openbittorrent.com%3A80","udp%3A%2F%2Fopen.demonii.com%3A1337","udp%3A%2F%2Ftracker.coppersurfer.tk%3A6969","udp%3A%2F%2Fexodus.desync.com%3A6969"],"infoHash":"9c8c5bb340d34b2750903ed55605ca0a9edbf55f","infoHashBuffer":{"type":"Buffer","data":[156,140,91,179,64,211,75,39,80,144,62,213,86,5,202,10,158,219,245,95]},"announce":[],"urlList":[]}}